<?xml version="1.0" encoding="UTF-8" standalone="no"?>
<!-- Created with Inkscape (http://www.inkscape.org/) -->

<svg
   version="1.1"
   id="svg1"
   width="512"
   height="512"
   viewBox="0 0 512 512"
   sodipodi:docname="favicon.svg"
   inkscape:version="1.3.2 (091e20ef0f, 2023-11-25, custom)"
   inkscape:export-filename="favicon-16x16.png"
   inkscape:export-xdpi="3"
   inkscape:export-ydpi="3"
   xml:space="preserve"
   xmlns:inkscape="http://www.inkscape.org/namespaces/inkscape"
   xmlns:sodipodi="http://sodipodi.sourceforge.net/DTD/sodipodi-0.dtd"
   xmlns="http://www.w3.org/2000/svg"
   xmlns:svg="http://www.w3.org/2000/svg"><defs
     id="defs1"><clipPath
       clipPathUnits="userSpaceOnUse"
       id="clipPath8"><circle
         style="opacity:0.279782;fill:#aa0000;fill-opacity:1;stroke:none;stroke-width:22.8154;stroke-linecap:round;stroke-linejoin:round;stroke-dasharray:none;stroke-opacity:1;paint-order:fill markers stroke"
         id="circle8"
         cx="-246.92387"
         cy="220.15349"
         r="166.73659" /></clipPath><clipPath
       clipPathUnits="userSpaceOnUse"
       id="clipPath11"><rect
         style="opacity:1;fill:#000000;fill-opacity:1;stroke:none;stroke-width:5.24623;stroke-linecap:round;stroke-linejoin:round;stroke-dasharray:none;stroke-opacity:1;paint-order:fill markers stroke"
         id="rect12"
         width="693.74872"
         height="286.94165"
         x="-977.26727"
         y="-910.53375" /></clipPath></defs><sodipodi:namedview
     id="namedview1"
     pagecolor="#ffffff"
     bordercolor="#000000"
     borderopacity="0.25"
     inkscape:showpageshadow="2"
     inkscape:pageopacity="0.0"
     inkscape:pagecheckerboard="0"
     inkscape:deskcolor="#d1d1d1"
     showgrid="false"
     inkscape:zoom="1.2089844"
     inkscape:cx="31.844912"
     inkscape:cy="272.95638"
     inkscape:window-width="3440"
     inkscape:window-height="1420"
     inkscape:window-x="0"
     inkscape:window-y="20"
     inkscape:window-maximized="1"
     inkscape:current-layer="g8" /><g
     inkscape:groupmode="layer"
     inkscape:label="Image"
     id="g1"><g
       id="g7"
       transform="matrix(1.1236915,0,0,1.1236915,-31.665024,-31.665024)"><g
         id="g8"
         transform="matrix(1.3749523,0,0,1.3749523,1708.9072,-9.020688)"><circle
           style="fill:#ffffff;fill-opacity:1;stroke:none;stroke-width:0.651868;stroke-linecap:round;stroke-linejoin:round;stroke-dasharray:none;stroke-opacity:1;paint-order:fill markers stroke"
           id="path7"
           cx="-1056.6964"
           cy="192.74901"
           r="165.69341" /><g
           id="g13"
           transform="matrix(0.99956289,0,0,0.99956289,-827.56159,-30.227515)"><circle
             style="opacity:1;fill:none;fill-opacity:1;stroke:#000000;stroke-width:5.24623;stroke-linecap:round;stroke-linejoin:round;stroke-dasharray:none;stroke-opacity:1;paint-order:fill markers stroke"
             id="path8"
             cx="-230.26889"
             cy="208.96077"
             r="19.078796" /><path
             fill-rule="evenodd"
             clip-rule="evenodd"
             d="m -330.65874,358.2119 c -13.59984,5.87445 -17.60228,17.72937 -17.96951,25.09709 -0.48275,9.67359 6.75046,14.51225 6.75046,14.51225 0,0 -4.33938,0.96701 -2.41106,14.51042 1.9283,13.54529 18.39588,12.09295 18.39588,12.09295 -2.34903,-20.29747 6.19487,-29.50619 6.19487,-29.50619 -14.59576,46.49914 44.41436,63.96818 44.41436,63.96818 -15.68921,-13.04691 -18.99558,-38.73535 -18.99558,-38.73535 14.32872,56.355 96.30243,32.33091 96.30243,32.33091 -12.05388,-2.41933 -19.50305,-11.60946 -19.50305,-11.60946 24.10795,11.12409 70.39567,-6.28915 70.39567,-6.28915 19.92739,-14.96973 30.33927,-77.02438 17.86698,-122.82803 -6.36725,-23.3788 -29.19192,-38.73867 -31.1389,-46.11663 -4.08925,-15.50268 -11.36435,-24.24128 -16.67461,-28.80994 19.40821,10.92976 22.53604,26.75119 22.53604,26.75119 73.312627,70.65043 19.46439,174.87323 19.46439,174.87323 -159.99723,74.06578 -190.93679,-8.70661 -190.93679,-8.70661 l -11.57126,-1.93583 c -19.28719,-4.83681 -12.53674,-29.02268 -12.53674,-29.02268 -8.67875,-12.57645 -0.96417,-27.08872 -0.96417,-27.08872 3.858,-18.38209 21.69682,-18.86558 21.69682,-18.86558 10.90708,-9.98416 29.19564,-1.27195 29.19564,-1.27195 -30.2889,-66.44889 8.7531,-95.26887 8.7531,-95.26887 -31.82267,-23.21889 -3.71491,-39.38655 -3.71491,-39.38655 l -1.37816,-15.91236 c -51.44958,4.53555 -43.00186,-15.36062 -43.00186,-15.36062 0,0 14.49263,2.57478 28.91081,-1.85718 7.93469,-2.43959 14.23258,-4.76465 14.23258,-4.76465 -0.12642,-42.17522 -20.93625,-76.75851 -20.93625,-76.75851 64.50746,-20.475646 133.49468,0.9728 133.49468,0.9728 -22.17957,24.18606 -22.04474,64.04312 -22.04474,64.04312 -0.8171,4.89296 0.54449,8.25567 3.1784,10.51991 -3.47427,0.33268 -77.71949,7.34223 -95.18014,3.29929 0,0 31.39068,13.64402 95.19949,-3.28275 9.53692,8.17013 35.66309,2.02715 35.66309,2.02715 0,0 -3.67826,12.61585 -16.2906,16.55133 -8.91544,2.78174 -28.486,0.60287 -28.486,0.60287 l 5.22807,11.21278 c 0,0 14.59427,-10.64152 21.3448,2.90172 6.75031,13.54473 0.96399,22.25152 0.96399,22.25152 l 0.0468,0.0208 c -8.51656,11.66245 -22.46725,11.10494 -22.46725,11.10494 0,0 12.29472,-10.8829 8.91955,-16.20356 -3.37517,-5.32215 -7.4739,5.07782 -7.4739,5.07782 0,0 5.54551,-20.31553 11.57263,-11.12579 6.02693,9.19124 -5.54419,18.38248 -5.54419,18.38248 18.32163,-3.62771 13.01808,-32.89289 4.57998,-31.92571 -8.43809,0.96736 -12.29599,12.3345 -12.29599,12.3345 l -11.34849,-25.44452 c 0,0 -0.51846,-3.25373 -32.97227,4.14244 -17.00413,3.87447 -38.09714,1.69298 -38.09714,1.69298 2.40968,6.77225 -1.47854,18.18923 -1.47854,18.18923 10.30586,-3.6621 25.50116,4.97572 27.58632,6.20788 l -0.1018,0.29121 c 0,0 -10.12566,-4.35349 -23.6267,-3.38613 -13.50083,0.96718 -17.84018,10.15841 -11.5726,17.89803 6.26905,7.73962 12.53681,10.1584 12.53681,10.1584 0,0 19.28716,-9.19122 32.30523,-9.19122 13.01828,0 24.10816,6.28803 29.41153,7.73962 0,0 8.19746,-31.44257 -1.92821,-42.56832 -9.80119,-10.76834 -30.89419,3.84153 -36.61037,17.95048 3.1042,-17.76843 31.36594,-36.86422 40.94972,-23.27133 13.9823,19.83275 5.78632,49.8237 5.78632,49.8237 l 24.10796,8.22406 -11.57262,5.80492 c 12.53683,7.25537 17.35894,17.89728 17.35894,17.89728 l -8.19747,-0.48349 8.19747,18.86558 -10.60843,-9.19196 c 5.78632,18.38206 -3.37535,27.57218 -3.37535,27.57218 l 11.57263,-3.86795 c -26.51892,25.15288 -26.03618,55.1444 -26.03618,55.1444 43.39382,4.83679 55.44789,40.14864 55.44789,40.14864 -38.09044,-51.27458 -123.43388,-26.12173 -123.43388,-26.12173 10.12565,-8.70663 16.87618,-11.12595 16.87618,-11.12595 -34.23364,-3.86795 -45.80627,11.12595 -45.80627,11.12595 4.14001,-8.94465 12.90818,-15.99251 18.38488,-19.74516 -4.37917,-4.84983 -9.30727,-7.66338 -13.62747,-9.29239 -4.78364,-1.37983 -8.13257,-1.43562 -8.13257,-1.43562 -2.61478,0.14314 -5.0382,0.44074 -7.28274,0.87402 -2.72336,1.51557 -3.1704,3.576 -3.1704,3.576 -1.8306,-0.9205 -3.69985,-1.12134 -5.32831,-1.0079 z m 58.62372,-33.77024 c 2.2817,3.4291 13.85712,19.63361 28.51891,19.20218 16.39324,-0.48536 32.30393,-12.57831 27.96439,-28.05755 0,0 4.33954,7.25799 1.44695,16.44624 0,0 11.57262,-12.57457 8.19746,-23.70052 -3.37515,-11.12594 -12.53682,-3.38632 -12.53682,-3.38632 l 7.71471,6.28729 c 0,0 -20.73279,-7.25428 -46.28772,-1.93399 -25.5549,5.32032 -30.37701,9.67362 -35.19782,5.32032 0,0 -8.67875,-0.96699 -8.67875,4.83865 0,5.8038 9.64293,2.41748 18.32167,-0.48535 8.67871,-2.90097 24.5907,-5.80564 24.5907,-5.80564 0,0 -2.8937,5.32215 -11.57244,6.77262 -8.6789,1.45235 -24.10814,9.19198 -21.697,11.6113 0,0 5.30358,12.09295 18.80441,12.09295 12.05946,0 2.57479,-15.82699 0.41135,-19.20218 -0.27096,-0.40538 -0.41135,-0.63039 -0.41135,-0.63039 0,0 0.1542,0.22501 0.41135,0.63039 z m -30.78838,-64.96658 c 0,0 -24.58942,21.76636 -34.23362,67.23715 l 13.01806,-0.48349 c 0,0 1.44696,-45.95428 21.21556,-66.75366 z m 18.28595,-2.96939 c -3.47836,2.8701 -23.12461,20.33745 -18.28595,45.05368 0,0 7.71472,-1.45234 13.01957,2.90097 5.30357,4.3533 9.64292,2.41932 22.17826,-0.96699 12.53683,-3.38632 35.19915,-2.90096 43.87787,-0.967 0,0 14.46524,-13.05993 22.17974,1.93399 0,0 1.92822,-14.02691 -2.41114,-20.31421 l 5.78631,2.41747 -7.23307,-13.06104 7.23307,4.35349 c 0,0 -7.71452,-7.73961 -13.98358,-10.15839 l 6.75051,-6.28803 c 0,0 -11.08987,-0.96737 -23.14395,-7.25521 -10.66478,-5.56503 -26.23851,-12.64375 -47.05239,-2.8039 2.75222,0.26759 7.99663,1.29838 7.99663,5.22266 0,5.32068 -2.89239,6.77098 -12.05406,4.3535 -3.96652,-1.04732 -5.22099,-2.73081 -4.85782,-4.42099 z m 16.43044,5.87112 c 0,0 -5.30356,13.54473 -7.71454,32.89528 0,0 -3.85788,-18.38339 7.71454,-32.89528 z m 5.30355,-3.38616 c 0,0 16.87619,-0.48293 20.25135,-3.38612 3.37537,-2.90189 -1.44695,-7.73963 -8.67872,-7.73963 -7.23326,0 -12.53682,6.28933 -11.57263,11.12575 z m -20.67494,-26.03784 c -2.57053,-0.24284 -4.16607,-0.12826 -4.16607,-0.12826 -5.50161,-0.55192 -9.90289,-3.31157 -4.95135,-4.41543 2.36,-0.5257 7.34725,1.20596 11.91907,3.16393 1.22825,-0.008 2.43997,0.57127 3.39729,1.52207 3.49214,1.62398 6.13981,3.04119 6.13981,3.04119 -1.79766,-0.78941 -3.54866,-1.39376 -5.19904,-1.85459 0.41117,0.66371 0.71799,1.41981 0.87755,2.22984 0.56791,2.89224 -0.95044,5.37313 -3.39321,5.54142 -2.44276,0.16842 -4.88403,-2.03941 -5.45345,-4.93146 -0.32189,-1.63662 0.0246,-3.14068 0.8294,-4.16866 z m 35.29953,-133.840079 c 0,0 30.38392,0.47189 40.02274,9.838339 0,0 -11.75411,32.55901 -7.66375,67.89707 0,0 4.90747,-53.14645 19.59528,-71.02657 0,0 -17.99008,-7.560229 -51.95427,-6.708839 z"
             fill="#000000"
             id="path1-5"
             style="stroke-width:1.85959"
             clip-path="url(#clipPath8)"
             transform="matrix(1.0703151,0,0,1.0703151,32.517155,-30.485127)" /><rect
             style="opacity:1;fill:#000000;fill-opacity:1;stroke:none;stroke-width:4.20006;stroke-linecap:round;stroke-linejoin:round;stroke-dasharray:none;stroke-opacity:1;paint-order:fill markers stroke"
             id="rect8"
             width="6.2954674"
             height="37.171352"
             x="-63.790386"
             y="293.09891"
             transform="matrix(0.75166933,0.65954016,-0.60362743,0.79726653,0,0)" /><rect
             style="opacity:1;fill:#000000;fill-opacity:1;stroke:none;stroke-width:2.51848;stroke-linecap:round;stroke-linejoin:round;stroke-dasharray:none;stroke-opacity:1;paint-order:fill markers stroke"
             id="rect9"
             width="2.4044917"
             height="34.992809"
             x="-65.315796"
             y="298.9007"
             transform="matrix(0.68848863,0.72524713,-0.579198,0.81518689,0,0)" /></g></g><circle
         style="fill:#ffffff;fill-opacity:1;stroke:none;stroke-width:0.889924;stroke-linecap:round;stroke-linejoin:round;stroke-dasharray:none;stroke-opacity:1;paint-order:fill markers stroke"
         id="circle13"
         cx="1640.9237"
         cy="256"
         r="226.20305" /><g
         id="g6"
         transform="matrix(0.65175584,0,0,0.65175584,3140.0049,594.1837)"><path
           id="path1"
           style="fill:#000000;stroke:#ffffff;stroke-width:41.8911;stroke-linecap:round;stroke-linejoin:round;stroke-dasharray:none;stroke-opacity:1;paint-order:stroke fill markers"
           d="m 518.92473,-686.79456 c -114.9892,-0.013 -175.9659,33.30098 -179.55381,32.3396 l 64.07318,292.65368 c 0,0 -22.12007,15.50165 -58.53463,23.26451 -22.40853,4.77706 -68.05408,2.06387 -71.94489,2.40892 -3.89082,0.34506 -1.89558,21.54767 4.30271,31.12107 6.19828,9.57341 16.14019,16.97606 49.74956,25.92665 33.60938,8.95058 59.24823,-2.5383 81.54592,-2.1059 21.12876,0.40973 53.9595,5.55115 79.63913,4.17069 25.67961,-1.38047 63.12742,-10.52519 84.85519,-17.05935 21.72776,-6.53415 43.16997,-7.85656 43.16997,-7.85656 0,0 12.73304,-1.04238 37.67254,6.67916 24.93948,7.72153 59.02694,4.93778 86.55204,-0.61034 27.52507,-5.54814 50.61963,-62.31574 50.61963,-62.31574 -8.8655,-0.4121 -115.6784,40.67438 -117.3463,-49.51582 -1.20598,-65.21205 11.88692,-119.52908 27.92867,-163.5853 17.86115,-49.05289 39.67292,-78.80281 37.34572,-79.53741 -85.79439,-27.08179 -159.84218,-35.97103 -220.07463,-35.97786 z m 30.56701,33.44125 c -0.2258,0.11349 91.4876,-1.64657 139.56543,24.43542 2.34135,1.27017 -10.49314,21.5218 -21.02442,54.75353 -23.15002,73.05044 -27.3377,192.86927 -25.03494,193.10693 -3.4914,-0.58989 -9.04496,-163.96124 14.66774,-235.62976 1.76772,-5.34269 -10.75599,-14.45442 -33.04734,-21.12398 -30.73887,-9.19705 -75.12647,-15.54214 -75.12647,-15.54214 z m 124.34578,277.62232 c 0,0 -16.88409,5.17891 -34.71389,10.4343 -20.05949,5.91259 -74.54264,17.19466 -117.28136,19.2713 -42.15308,2.04818 -114.7123,-19.29727 -114.7123,-19.29727 37.66582,9.77551 115.76932,4.64676 138.29064,3.42615 22.52133,-1.22062 128.41691,-13.83448 128.41691,-13.83448 z"
           sodipodi:nodetypes="sccssssssscsscsssscsscssccsscsc" /></g></g></g></svg>
